# xmcd CD database file
#
# Track frame offsets:
#	180
#	17360
#	30958
#	45993
#	61651
#	79349
#	94320
#	117134
#	133180
#	147881
#	161690
#	171045
#
# Disc length: 2530 seconds
#
# Revision: 0
# Processed by: cddbd v1.4PL0 Copyright (c) Steve Scherf et al.
# Submitted via: CDex 1.51
#
DISCID=8d09e00c
DTITLE=Kidd Country - Kidd Country
DYEAR=1995
DGENRE=Country
TTITLE0=Never Too Young
TTITLE1=Midnight Caberet
TTITLE2=Lovin' Lady
TTITLE3=Rock and Roll Girl
TTITLE4=I'll Just Leave the Leavin
TTITLE5=Free Wheelin'
TTITLE6=Jukebox and Teardrops
TTITLE7=Ain't Got a Minute to Lose
TTITLE8=Sahara
TTITLE9=Stagecoach
TTITLE10=Big Blue Lincoln
TTITLE11=Lonesome Town
EXTD=YEAR: 1995
EXTT0=
EXTT1=
EXTT2=
EXTT3=
EXTT4=
EXTT5=
EXTT6=
EXTT7=
EXTT8=
EXTT9=
EXTT10=
EXTT11=
PLAYORDER=
